<?xml version="1.0" standalone="no"?><!-- Generator: Gravit.io --><svg xmlns="http://www.w3.org/2000/svg" xmlns:xlink="http://www.w3.org/1999/xlink" style="isolation:isolate" viewBox="0 -17 945 187" width="945" height="187"><path d="M 25 0 L 50 0 L 50 50 L 0 50 L 0 25 C 0 11.202 11.202 0 25 0 Z" style="stroke:none;fill:#D8308F;stroke-miterlimit:10;"/><path d="M 135 160 L 110 160 L 110 110 L 160 110 L 160 135 C 160 148.798 148.798 160 135 160 Z" style="stroke:none;fill:#D8308F;stroke-miterlimit:10;"/><path d="M 160 25 L 160 50 L 110 50 L 110 0 L 135 0 C 148.798 0 160 11.202 160 25 Z" style="stroke:none;fill:#D8308F;stroke-miterlimit:10;"/><path d="M 0 135 L 0 110 L 50 110 L 50 160 L 25 160 C 11.202 160 0 148.798 0 135 Z" style="stroke:none;fill:#D8308F;stroke-miterlimit:10;"/><rect x="55" y="0" width="50" height="50" transform="matrix(1,0,0,1,0,0)" fill="rgb(216,48,143)"/><rect x="55" y="110" width="50" height="50" transform="matrix(-1,0,0,-1,160,270)" fill="rgb(216,48,143)"/><rect x="0" y="55" width="50" height="50" transform="matrix(1,0,0,1,0,0)" fill="rgb(216,48,143)"/><rect x="55" y="55" width="50" height="50" transform="matrix(-1,0,0,-1,160,160)" fill="rgb(216,48,143)"/><rect x="110" y="55" width="50" height="50" transform="matrix(-1,0,0,-1,270,160)" fill="rgb(216,48,143)"/><path d=" M 223.22 106.67 L 223.22 106.67 Q 211.66 106.67 202.65 101.23 L 202.65 101.23 L 202.65 101.23 Q 193.64 95.79 188.54 86.1 L 188.54 86.1 L 188.54 86.1 Q 183.44 76.41 183.44 64.17 L 183.44 64.17 L 183.44 64.17 Q 183.44 51.93 188.455 42.24 L 188.455 42.24 L 188.455 42.24 Q 193.47 32.55 202.48 27.11 L 202.48 27.11 L 202.48 27.11 Q 211.49 21.67 222.88 21.67 L 222.88 21.67 L 222.88 21.67 Q 232.57 21.67 239.795 25.835 L 239.795 25.835 L 239.795 25.835 Q 247.02 30 252.97 37.65 L 252.97 37.65 L 244.47 44.28 L 244.47 44.28 Q 236.14 32.21 222.88 32.21 L 222.88 32.21 L 222.88 32.21 Q 214.89 32.21 208.515 36.29 L 208.515 36.29 L 208.515 36.29 Q 202.14 40.37 198.57 47.68 L 198.57 47.68 L 198.57 47.68 Q 195 54.99 195 64.17 L 195 64.17 L 195 64.17 Q 195 73.35 198.57 80.66 L 198.57 80.66 L 198.57 80.66 Q 202.14 87.97 208.515 92.05 L 208.515 92.05 L 208.515 92.05 Q 214.89 96.13 222.88 96.13 L 222.88 96.13 L 222.88 96.13 Q 231.04 96.13 236.31 93.325 L 236.31 93.325 L 236.31 93.325 Q 241.58 90.52 245.83 85.08 L 245.83 85.08 L 254.84 91.37 L 254.84 91.37 Q 249.23 98.34 240.985 102.505 L 240.985 102.505 L 240.985 102.505 Q 232.74 106.67 223.22 106.67 L 223.22 106.67 Z  M 302.48 106.67 L 302.48 106.67 Q 291.09 106.67 282.08 101.23 L 282.08 101.23 L 282.08 101.23 Q 273.07 95.79 267.97 86.015 L 267.97 86.015 L 267.97 86.015 Q 262.87 76.24 262.87 64 L 262.87 64 L 262.87 64 Q 262.87 51.76 267.885 42.155 L 267.885 42.155 L 267.885 42.155 Q 272.9 32.55 281.825 27.11 L 281.825 27.11 L 281.825 27.11 Q 290.75 21.67 302.14 21.67 L 302.14 21.67 L 302.14 21.67 Q 313.53 21.67 322.54 27.11 L 322.54 27.11 L 322.54 27.11 Q 331.55 32.55 336.65 42.24 L 336.65 42.24 L 336.65 42.24 Q 341.75 51.93 341.75 64.17 L 341.75 64.17 L 341.75 64.17 Q 341.75 76.41 336.735 86.1 L 336.735 86.1 L 336.735 86.1 Q 331.72 95.79 322.795 101.23 L 322.795 101.23 L 322.795 101.23 Q 313.87 106.67 302.48 106.67 L 302.48 106.67 Z  M 302.14 96.13 L 302.14 96.13 Q 310.3 96.13 316.675 92.05 L 316.675 92.05 L 316.675 92.05 Q 323.05 87.97 326.62 80.66 L 326.62 80.66 L 326.62 80.66 Q 330.19 73.35 330.19 64.17 L 330.19 64.17 L 330.19 64.17 Q 330.19 54.99 326.62 47.68 L 326.62 47.68 L 326.62 47.68 Q 323.05 40.37 316.675 36.29 L 316.675 36.29 L 316.675 36.29 Q 310.3 32.21 302.14 32.21 L 302.14 32.21 L 302.14 32.21 Q 294.15 32.21 287.86 36.29 L 287.86 36.29 L 287.86 36.29 Q 281.57 40.37 278 47.595 L 278 47.595 L 278 47.595 Q 274.43 54.82 274.43 64 L 274.43 64 L 274.43 64 Q 274.43 73.35 278 80.66 L 278 80.66 L 278 80.66 Q 281.57 87.97 287.86 92.05 L 287.86 92.05 L 287.86 92.05 Q 294.15 96.13 302.14 96.13 L 302.14 96.13 Z  M 393.98 21.67 L 393.98 21.67 Q 402.31 21.67 409.365 25.07 L 409.365 25.07 L 409.365 25.07 Q 416.42 28.47 420.585 35.1 L 420.585 35.1 L 420.585 35.1 Q 424.75 41.73 424.75 50.74 L 424.75 50.74 L 424.75 103.95 L 413.19 103.95 L 413.19 55.84 L 413.19 55.84 Q 413.19 32.21 392.11 32.21 L 392.11 32.21 L 392.11 32.21 Q 379.87 32.21 373.75 40.88 L 373.75 40.88 L 373.75 40.88 Q 367.63 49.55 367.63 64.17 L 367.63 64.17 L 367.63 103.95 L 356.07 103.95 L 356.07 24.39 L 367.63 24.39 L 367.63 37.65 L 367.63 37.65 Q 371.71 30 378.425 25.835 L 378.425 25.835 L 378.425 25.835 Q 385.14 21.67 393.98 21.67 L 393.98 21.67 Z  M 461.17 103.95 L 449.61 103.95 L 449.61 34.93 L 436.01 34.93 L 436.01 24.39 L 449.61 24.39 L 449.61 -1.96 L 461.17 -1.96 L 461.17 24.39 L 479.53 24.39 L 479.53 34.93 L 461.17 34.93 L 461.17 103.95 Z  M 552.5 24.39 L 564.06 24.39 L 564.06 103.95 L 552.5 103.95 L 552.5 92.22 L 552.5 92.22 Q 547.57 99.02 540.43 102.845 L 540.43 102.845 L 540.43 102.845 Q 533.29 106.67 524.79 106.67 L 524.79 106.67 L 524.79 106.67 Q 513.4 106.67 504.39 101.23 L 504.39 101.23 L 504.39 101.23 Q 495.38 95.79 490.28 86.1 L 490.28 86.1 L 490.28 86.1 Q 485.18 76.41 485.18 64 L 485.18 64 L 485.18 64 Q 485.18 51.76 490.195 42.155 L 490.195 42.155 L 490.195 42.155 Q 495.21 32.55 504.135 27.11 L 504.135 27.11 L 504.135 27.11 Q 513.06 21.67 524.45 21.67 L 524.45 21.67 L 524.45 21.67 Q 533.12 21.67 540.345 25.495 L 540.345 25.495 L 540.345 25.495 Q 547.57 29.32 552.5 36.29 L 552.5 36.29 L 552.5 24.39 Z  M 524.45 96.13 L 524.45 96.13 Q 532.61 96.13 538.985 92.05 L 538.985 92.05 L 538.985 92.05 Q 545.36 87.97 548.93 80.66 L 548.93 80.66 L 548.93 80.66 Q 552.5 73.35 552.5 64.17 L 552.5 64.17 L 552.5 64.17 Q 552.5 54.99 548.93 47.68 L 548.93 47.68 L 548.93 47.68 Q 545.36 40.37 538.985 36.29 L 538.985 36.29 L 538.985 36.29 Q 532.61 32.21 524.45 32.21 L 524.45 32.21 L 524.45 32.21 Q 516.46 32.21 510.17 36.29 L 510.17 36.29 L 510.17 36.29 Q 503.88 40.37 500.31 47.595 L 500.31 47.595 L 500.31 47.595 Q 496.74 54.82 496.74 64 L 496.74 64 L 496.74 64 Q 496.74 73.35 500.31 80.66 L 500.31 80.66 L 500.31 80.66 Q 503.88 87.97 510.17 92.05 L 510.17 92.05 L 510.17 92.05 Q 516.46 96.13 524.45 96.13 L 524.45 96.13 Z  M 617.99 106.67 L 617.99 106.67 Q 606.43 106.67 597.42 101.23 L 597.42 101.23 L 597.42 101.23 Q 588.41 95.79 583.31 86.1 L 583.31 86.1 L 583.31 86.1 Q 578.21 76.41 578.21 64.17 L 578.21 64.17 L 578.21 64.17 Q 578.21 51.93 583.225 42.24 L 583.225 42.24 L 583.225 42.24 Q 588.24 32.55 597.25 27.11 L 597.25 27.11 L 597.25 27.11 Q 606.26 21.67 617.65 21.67 L 617.65 21.67 L 617.65 21.67 Q 627.34 21.67 634.565 25.835 L 634.565 25.835 L 634.565 25.835 Q 641.79 30 647.74 37.65 L 647.74 37.65 L 639.24 44.28 L 639.24 44.28 Q 630.91 32.21 617.65 32.21 L 617.65 32.21 L 617.65 32.21 Q 609.66 32.21 603.285 36.29 L 603.285 36.29 L 603.285 36.29 Q 596.91 40.37 593.34 47.68 L 593.34 47.68 L 593.34 47.68 Q 589.77 54.99 589.77 64.17 L 589.77 64.17 L 589.77 64.17 Q 589.77 73.35 593.34 80.66 L 593.34 80.66 L 593.34 80.66 Q 596.91 87.97 603.285 92.05 L 603.285 92.05 L 603.285 92.05 Q 609.66 96.13 617.65 96.13 L 617.65 96.13 L 617.65 96.13 Q 625.81 96.13 631.08 93.325 L 631.08 93.325 L 631.08 93.325 Q 636.35 90.52 640.6 85.08 L 640.6 85.08 L 649.61 91.37 L 649.61 91.37 Q 644 98.34 635.755 102.505 L 635.755 102.505 L 635.755 102.505 Q 627.51 106.67 617.99 106.67 L 617.99 106.67 Z  M 678.38 103.95 L 666.82 103.95 L 666.82 34.93 L 653.22 34.93 L 653.22 24.39 L 666.82 24.39 L 666.82 -1.96 L 678.38 -1.96 L 678.38 24.39 L 696.74 24.39 L 696.74 34.93 L 678.38 34.93 L 678.38 103.95 Z " fill-rule="evenodd" fill="rgb(255,255,255)"/><g opacity="0.75"><path d=" M 596.68 158.048 L 596.68 158.048 Q 593.416 158.048 590.944 156.656 L 590.944 156.656 L 590.944 156.656 Q 588.472 155.264 587.176 152.72 L 587.176 152.72 L 590.104 151.28 L 590.104 151.28 Q 591.88 155.072 597.064 155.072 L 597.064 155.072 L 597.064 155.072 Q 599.56 155.072 601.192 154.16 L 601.192 154.16 L 601.192 154.16 Q 602.824 153.248 602.824 151.328 L 602.824 151.328 L 602.824 151.328 Q 602.824 149.36 601.504 148.4 L 601.504 148.4 L 601.504 148.4 Q 600.184 147.44 596.872 147.152 L 596.872 147.152 L 596.872 147.152 Q 592.264 146.768 590.272 145.088 L 590.272 145.088 L 590.272 145.088 Q 588.28 143.408 588.28 140.624 L 588.28 140.624 L 588.28 140.624 Q 588.28 137.504 590.536 135.776 L 590.536 135.776 L 590.536 135.776 Q 592.792 134.048 596.728 134.048 L 596.728 134.048 L 596.728 134.048 Q 603.4 134.048 605.8 139.328 L 605.8 139.328 L 602.872 140.768 L 602.872 140.768 Q 602.056 138.848 600.496 137.936 L 600.496 137.936 L 600.496 137.936 Q 598.936 137.024 596.488 137.024 L 596.488 137.024 L 596.488 137.024 Q 593.992 137.024 592.672 137.936 L 592.672 137.936 L 592.672 137.936 Q 591.352 138.848 591.352 140.528 L 591.352 140.528 L 591.352 140.528 Q 591.352 142.112 592.768 143.096 L 592.768 143.096 L 592.768 143.096 Q 594.184 144.08 597.64 144.368 L 597.64 144.368 L 597.64 144.368 Q 601.912 144.752 604 146.456 L 604 146.456 L 604 146.456 Q 606.088 148.16 606.088 150.944 L 606.088 150.944 L 606.088 150.944 Q 606.088 153.2 604.792 154.808 L 604.792 154.808 L 604.792 154.808 Q 603.496 156.416 601.336 157.232 L 601.336 157.232 L 601.336 157.232 Q 599.176 158.048 596.68 158.048 L 596.68 158.048 Z  M 620.824 158.048 L 620.824 158.048 Q 617.608 158.048 615.064 156.512 L 615.064 156.512 L 615.064 156.512 Q 612.52 154.976 611.08 152.216 L 611.08 152.216 L 611.08 152.216 Q 609.64 149.456 609.64 146 L 609.64 146 L 609.64 146 Q 609.64 142.544 611.056 139.832 L 611.056 139.832 L 611.056 139.832 Q 612.472 137.12 614.992 135.584 L 614.992 135.584 L 614.992 135.584 Q 617.512 134.048 620.728 134.048 L 620.728 134.048 L 620.728 134.048 Q 623.944 134.048 626.488 135.584 L 626.488 135.584 L 626.488 135.584 Q 629.032 137.12 630.472 139.856 L 630.472 139.856 L 630.472 139.856 Q 631.912 142.592 631.912 146.048 L 631.912 146.048 L 631.912 146.048 Q 631.912 149.504 630.496 152.24 L 630.496 152.24 L 630.496 152.24 Q 629.08 154.976 626.56 156.512 L 626.56 156.512 L 626.56 156.512 Q 624.04 158.048 620.824 158.048 L 620.824 158.048 Z  M 620.728 155.072 L 620.728 155.072 Q 623.032 155.072 624.832 153.92 L 624.832 153.92 L 624.832 153.92 Q 626.632 152.768 627.64 150.704 L 627.64 150.704 L 627.64 150.704 Q 628.648 148.64 628.648 146.048 L 628.648 146.048 L 628.648 146.048 Q 628.648 143.456 627.64 141.392 L 627.64 141.392 L 627.64 141.392 Q 626.632 139.328 624.832 138.176 L 624.832 138.176 L 624.832 138.176 Q 623.032 137.024 620.728 137.024 L 620.728 137.024 L 620.728 137.024 Q 618.472 137.024 616.696 138.176 L 616.696 138.176 L 616.696 138.176 Q 614.92 139.328 613.912 141.368 L 613.912 141.368 L 613.912 141.368 Q 612.904 143.408 612.904 146 L 612.904 146 L 612.904 146 Q 612.904 148.64 613.912 150.704 L 613.912 150.704 L 613.912 150.704 Q 614.92 152.768 616.696 153.92 L 616.696 153.92 L 616.696 153.92 Q 618.472 155.072 620.728 155.072 L 620.728 155.072 Z  M 640.024 157.28 L 636.76 157.28 L 636.76 122.432 L 640.024 122.432 L 640.024 157.28 Z  M 662.728 134.816 L 665.992 134.816 L 665.992 157.28 L 662.728 157.28 L 662.728 153.536 L 662.728 153.536 Q 661.576 155.696 659.68 156.872 L 659.68 156.872 L 659.68 156.872 Q 657.784 158.048 655.288 158.048 L 655.288 158.048 L 655.288 158.048 Q 652.936 158.048 650.944 157.088 L 650.944 157.088 L 650.944 157.088 Q 648.952 156.128 647.776 154.256 L 647.776 154.256 L 647.776 154.256 Q 646.6 152.384 646.6 149.84 L 646.6 149.84 L 646.6 134.816 L 649.864 134.816 L 649.864 148.4 L 649.864 148.4 Q 649.864 155.072 655.816 155.072 L 655.816 155.072 L 655.816 155.072 Q 659.272 155.072 661 152.624 L 661 152.624 L 661 152.624 Q 662.728 150.176 662.728 146.048 L 662.728 146.048 L 662.728 134.816 Z  M 676.504 157.28 L 673.24 157.28 L 673.24 137.792 L 669.4 137.792 L 669.4 134.816 L 673.24 134.816 L 673.24 127.376 L 676.504 127.376 L 676.504 134.816 L 681.688 134.816 L 681.688 137.792 L 676.504 137.792 L 676.504 157.28 Z  M 690.28 157.28 L 687.016 157.28 L 687.016 134.816 L 690.28 134.816 L 690.28 157.28 Z  M 688.648 130.448 L 688.648 130.448 Q 687.544 130.448 686.8 129.68 L 686.8 129.68 L 686.8 129.68 Q 686.056 128.912 686.056 127.808 L 686.056 127.808 L 686.056 127.808 Q 686.056 126.752 686.8 126.008 L 686.8 126.008 L 686.8 126.008 Q 687.544 125.264 688.648 125.264 L 688.648 125.264 L 688.648 125.264 Q 689.704 125.264 690.472 126.008 L 690.472 126.008 L 690.472 126.008 Q 691.24 126.752 691.24 127.856 L 691.24 127.856 L 691.24 127.856 Q 691.24 128.912 690.472 129.68 L 690.472 129.68 L 690.472 129.68 Q 689.704 130.448 688.648 130.448 L 688.648 130.448 Z  M 707.896 158.048 L 707.896 158.048 Q 704.68 158.048 702.136 156.512 L 702.136 156.512 L 702.136 156.512 Q 699.592 154.976 698.152 152.216 L 698.152 152.216 L 698.152 152.216 Q 696.712 149.456 696.712 146 L 696.712 146 L 696.712 146 Q 696.712 142.544 698.128 139.832 L 698.128 139.832 L 698.128 139.832 Q 699.544 137.12 702.064 135.584 L 702.064 135.584 L 702.064 135.584 Q 704.584 134.048 707.8 134.048 L 707.8 134.048 L 707.8 134.048 Q 711.016 134.048 713.56 135.584 L 713.56 135.584 L 713.56 135.584 Q 716.104 137.12 717.544 139.856 L 717.544 139.856 L 717.544 139.856 Q 718.984 142.592 718.984 146.048 L 718.984 146.048 L 718.984 146.048 Q 718.984 149.504 717.568 152.24 L 717.568 152.24 L 717.568 152.24 Q 716.152 154.976 713.632 156.512 L 713.632 156.512 L 713.632 156.512 Q 711.112 158.048 707.896 158.048 L 707.896 158.048 Z  M 707.8 155.072 L 707.8 155.072 Q 710.104 155.072 711.904 153.92 L 711.904 153.92 L 711.904 153.92 Q 713.704 152.768 714.712 150.704 L 714.712 150.704 L 714.712 150.704 Q 715.72 148.64 715.72 146.048 L 715.72 146.048 L 715.72 146.048 Q 715.72 143.456 714.712 141.392 L 714.712 141.392 L 714.712 141.392 Q 713.704 139.328 711.904 138.176 L 711.904 138.176 L 711.904 138.176 Q 710.104 137.024 707.8 137.024 L 707.8 137.024 L 707.8 137.024 Q 705.544 137.024 703.768 138.176 L 703.768 138.176 L 703.768 138.176 Q 701.992 139.328 700.984 141.368 L 700.984 141.368 L 700.984 141.368 Q 699.976 143.408 699.976 146 L 699.976 146 L 699.976 146 Q 699.976 148.64 700.984 150.704 L 700.984 150.704 L 700.984 150.704 Q 701.992 152.768 703.768 153.92 L 703.768 153.92 L 703.768 153.92 Q 705.544 155.072 707.8 155.072 L 707.8 155.072 Z  M 734.296 134.048 L 734.296 134.048 Q 736.648 134.048 738.64 135.008 L 738.64 135.008 L 738.64 135.008 Q 740.632 135.968 741.808 137.84 L 741.808 137.84 L 741.808 137.84 Q 742.984 139.712 742.984 142.256 L 742.984 142.256 L 742.984 157.28 L 739.72 157.28 L 739.72 143.696 L 739.72 143.696 Q 739.72 137.024 733.768 137.024 L 733.768 137.024 L 733.768 137.024 Q 730.312 137.024 728.584 139.472 L 728.584 139.472 L 728.584 139.472 Q 726.856 141.92 726.856 146.048 L 726.856 146.048 L 726.856 157.28 L 723.592 157.28 L 723.592 134.816 L 726.856 134.816 L 726.856 138.56 L 726.856 138.56 Q 728.008 136.4 729.904 135.224 L 729.904 135.224 L 729.904 135.224 Q 731.8 134.048 734.296 134.048 L 734.296 134.048 Z  M 757.288 158.048 L 757.288 158.048 Q 754.024 158.048 751.552 156.656 L 751.552 156.656 L 751.552 156.656 Q 749.08 155.264 747.784 152.72 L 747.784 152.72 L 750.712 151.28 L 750.712 151.28 Q 752.488 155.072 757.672 155.072 L 757.672 155.072 L 757.672 155.072 Q 760.168 155.072 761.8 154.16 L 761.8 154.16 L 761.8 154.16 Q 763.432 153.248 763.432 151.328 L 763.432 151.328 L 763.432 151.328 Q 763.432 149.36 762.112 148.4 L 762.112 148.4 L 762.112 148.4 Q 760.792 147.44 757.48 147.152 L 757.48 147.152 L 757.48 147.152 Q 752.872 146.768 750.88 145.088 L 750.88 145.088 L 750.88 145.088 Q 748.888 143.408 748.888 140.624 L 748.888 140.624 L 748.888 140.624 Q 748.888 137.504 751.144 135.776 L 751.144 135.776 L 751.144 135.776 Q 753.4 134.048 757.336 134.048 L 757.336 134.048 L 757.336 134.048 Q 764.008 134.048 766.408 139.328 L 766.408 139.328 L 763.48 140.768 L 763.48 140.768 Q 762.664 138.848 761.104 137.936 L 761.104 137.936 L 761.104 137.936 Q 759.544 137.024 757.096 137.024 L 757.096 137.024 L 757.096 137.024 Q 754.6 137.024 753.28 137.936 L 753.28 137.936 L 753.28 137.936 Q 751.96 138.848 751.96 140.528 L 751.96 140.528 L 751.96 140.528 Q 751.96 142.112 753.376 143.096 L 753.376 143.096 L 753.376 143.096 Q 754.792 144.08 758.248 144.368 L 758.248 144.368 L 758.248 144.368 Q 762.52 144.752 764.608 146.456 L 764.608 146.456 L 764.608 146.456 Q 766.696 148.16 766.696 150.944 L 766.696 150.944 L 766.696 150.944 Q 766.696 153.2 765.4 154.808 L 765.4 154.808 L 765.4 154.808 Q 764.104 156.416 761.944 157.232 L 761.944 157.232 L 761.944 157.232 Q 759.784 158.048 757.288 158.048 L 757.288 158.048 Z  M 516.04 134.816 L 519.304 134.816 L 519.304 157.28 L 516.04 157.28 L 516.04 153.968 L 516.04 153.968 Q 514.648 155.888 512.632 156.968 L 512.632 156.968 L 512.632 156.968 Q 510.616 158.048 508.216 158.048 L 508.216 158.048 L 508.216 158.048 Q 505 158.048 502.456 156.512 L 502.456 156.512 L 502.456 156.512 Q 499.912 154.976 498.472 152.24 L 498.472 152.24 L 498.472 152.24 Q 497.032 149.504 497.032 146 L 497.032 146 L 497.032 146 Q 497.032 142.544 498.448 139.832 L 498.448 139.832 L 498.448 139.832 Q 499.864 137.12 502.384 135.584 L 502.384 135.584 L 502.384 135.584 Q 504.904 134.048 508.12 134.048 L 508.12 134.048 L 508.12 134.048 Q 510.568 134.048 512.608 135.128 L 512.608 135.128 L 512.608 135.128 Q 514.648 136.208 516.04 138.176 L 516.04 138.176 L 516.04 134.816 Z  M 508.12 155.072 L 508.12 155.072 Q 510.424 155.072 512.224 153.92 L 512.224 153.92 L 512.224 153.92 Q 514.024 152.768 515.032 150.704 L 515.032 150.704 L 515.032 150.704 Q 516.04 148.64 516.04 146.048 L 516.04 146.048 L 516.04 146.048 Q 516.04 143.456 515.032 141.392 L 515.032 141.392 L 515.032 141.392 Q 514.024 139.328 512.224 138.176 L 512.224 138.176 L 512.224 138.176 Q 510.424 137.024 508.12 137.024 L 508.12 137.024 L 508.12 137.024 Q 505.864 137.024 504.088 138.176 L 504.088 138.176 L 504.088 138.176 Q 502.312 139.328 501.304 141.368 L 501.304 141.368 L 501.304 141.368 Q 500.296 143.408 500.296 146 L 500.296 146 L 500.296 146 Q 500.296 148.64 501.304 150.704 L 501.304 150.704 L 501.304 150.704 Q 502.312 152.768 504.088 153.92 L 504.088 153.92 L 504.088 153.92 Q 505.864 155.072 508.12 155.072 L 508.12 155.072 Z  M 536.056 134.048 L 536.056 134.048 Q 538.408 134.048 540.4 135.008 L 540.4 135.008 L 540.4 135.008 Q 542.392 135.968 543.568 137.84 L 543.568 137.84 L 543.568 137.84 Q 544.744 139.712 544.744 142.256 L 544.744 142.256 L 544.744 157.28 L 541.48 157.28 L 541.48 143.696 L 541.48 143.696 Q 541.48 137.024 535.528 137.024 L 535.528 137.024 L 535.528 137.024 Q 532.072 137.024 530.344 139.472 L 530.344 139.472 L 530.344 139.472 Q 528.616 141.92 528.616 146.048 L 528.616 146.048 L 528.616 157.28 L 525.352 157.28 L 525.352 134.816 L 528.616 134.816 L 528.616 138.56 L 528.616 138.56 Q 529.768 136.4 531.664 135.224 L 531.664 135.224 L 531.664 135.224 Q 533.56 134.048 536.056 134.048 L 536.056 134.048 Z  M 568.744 122.432 L 572.008 122.432 L 572.008 157.28 L 568.744 157.28 L 568.744 153.968 L 568.744 153.968 Q 567.352 155.888 565.336 156.968 L 565.336 156.968 L 565.336 156.968 Q 563.32 158.048 560.92 158.048 L 560.92 158.048 L 560.92 158.048 Q 557.704 158.048 555.16 156.512 L 555.16 156.512 L 555.16 156.512 Q 552.616 154.976 551.176 152.24 L 551.176 152.24 L 551.176 152.24 Q 549.736 149.504 549.736 146 L 549.736 146 L 549.736 146 Q 549.736 142.544 551.152 139.832 L 551.152 139.832 L 551.152 139.832 Q 552.568 137.12 555.088 135.584 L 555.088 135.584 L 555.088 135.584 Q 557.608 134.048 560.824 134.048 L 560.824 134.048 L 560.824 134.048 Q 563.272 134.048 565.312 135.128 L 565.312 135.128 L 565.312 135.128 Q 567.352 136.208 568.744 138.176 L 568.744 138.176 L 568.744 122.432 Z  M 560.824 155.072 L 560.824 155.072 Q 563.128 155.072 564.928 153.92 L 564.928 153.92 L 564.928 153.92 Q 566.728 152.768 567.736 150.704 L 567.736 150.704 L 567.736 150.704 Q 568.744 148.64 568.744 146.048 L 568.744 146.048 L 568.744 146.048 Q 568.744 143.456 567.736 141.392 L 567.736 141.392 L 567.736 141.392 Q 566.728 139.328 564.928 138.176 L 564.928 138.176 L 564.928 138.176 Q 563.128 137.024 560.824 137.024 L 560.824 137.024 L 560.824 137.024 Q 558.568 137.024 556.792 138.176 L 556.792 138.176 L 556.792 138.176 Q 555.016 139.328 554.008 141.368 L 554.008 141.368 L 554.008 141.368 Q 553 143.408 553 146 L 553 146 L 553 146 Q 553 148.64 554.008 150.704 L 554.008 150.704 L 554.008 150.704 Q 555.016 152.768 556.792 153.92 L 556.792 153.92 L 556.792 153.92 Q 558.568 155.072 560.824 155.072 L 560.824 155.072 Z  M 306.568 134.048 L 306.568 134.048 Q 309.688 134.048 311.752 136.232 L 311.752 136.232 L 311.752 136.232 Q 313.816 138.416 313.816 142.256 L 313.816 142.256 L 313.816 157.28 L 310.552 157.28 L 310.552 143.696 L 310.552 143.696 Q 310.552 140.144 309.208 138.584 L 309.208 138.584 L 309.208 138.584 Q 307.864 137.024 305.704 137.024 L 305.704 137.024 L 305.704 137.024 Q 303.064 137.024 301.6 139.064 L 301.6 139.064 L 301.6 139.064 Q 300.136 141.104 299.896 144.608 L 299.896 144.608 L 299.896 157.28 L 296.632 157.28 L 296.632 143.696 L 296.632 143.696 Q 296.632 140.144 295.288 138.584 L 295.288 138.584 L 295.288 138.584 Q 293.944 137.024 291.784 137.024 L 291.784 137.024 L 291.784 137.024 Q 288.856 137.024 287.392 139.472 L 287.392 139.472 L 287.392 139.472 Q 285.928 141.92 285.928 146.048 L 285.928 146.048 L 285.928 157.28 L 282.664 157.28 L 282.664 134.816 L 285.928 134.816 L 285.928 138.32 L 285.928 138.32 Q 287.032 136.256 288.736 135.152 L 288.736 135.152 L 288.736 135.152 Q 290.44 134.048 292.648 134.048 L 292.648 134.048 L 292.648 134.048 Q 295.096 134.048 296.92 135.368 L 296.92 135.368 L 296.92 135.368 Q 298.744 136.688 299.464 139.136 L 299.464 139.136 L 299.464 139.136 Q 300.52 136.736 302.344 135.392 L 302.344 135.392 L 302.344 135.392 Q 304.168 134.048 306.568 134.048 L 306.568 134.048 Z  M 337.24 134.816 L 340.504 134.816 L 340.504 157.28 L 337.24 157.28 L 337.24 153.968 L 337.24 153.968 Q 335.848 155.888 333.832 156.968 L 333.832 156.968 L 333.832 156.968 Q 331.816 158.048 329.416 158.048 L 329.416 158.048 L 329.416 158.048 Q 326.2 158.048 323.656 156.512 L 323.656 156.512 L 323.656 156.512 Q 321.112 154.976 319.672 152.24 L 319.672 152.24 L 319.672 152.24 Q 318.232 149.504 318.232 146 L 318.232 146 L 318.232 146 Q 318.232 142.544 319.648 139.832 L 319.648 139.832 L 319.648 139.832 Q 321.064 137.12 323.584 135.584 L 323.584 135.584 L 323.584 135.584 Q 326.104 134.048 329.32 134.048 L 329.32 134.048 L 329.32 134.048 Q 331.768 134.048 333.808 135.128 L 333.808 135.128 L 333.808 135.128 Q 335.848 136.208 337.24 138.176 L 337.24 138.176 L 337.24 134.816 Z  M 329.32 155.072 L 329.32 155.072 Q 331.624 155.072 333.424 153.92 L 333.424 153.92 L 333.424 153.92 Q 335.224 152.768 336.232 150.704 L 336.232 150.704 L 336.232 150.704 Q 337.24 148.64 337.24 146.048 L 337.24 146.048 L 337.24 146.048 Q 337.24 143.456 336.232 141.392 L 336.232 141.392 L 336.232 141.392 Q 335.224 139.328 333.424 138.176 L 333.424 138.176 L 333.424 138.176 Q 331.624 137.024 329.32 137.024 L 329.32 137.024 L 329.32 137.024 Q 327.064 137.024 325.288 138.176 L 325.288 138.176 L 325.288 138.176 Q 323.512 139.328 322.504 141.368 L 322.504 141.368 L 322.504 141.368 Q 321.496 143.408 321.496 146 L 321.496 146 L 321.496 146 Q 321.496 148.64 322.504 150.704 L 322.504 150.704 L 322.504 150.704 Q 323.512 152.768 325.288 153.92 L 325.288 153.92 L 325.288 153.92 Q 327.064 155.072 329.32 155.072 L 329.32 155.072 Z  M 357.592 134.048 L 357.592 134.048 Q 358.744 134.048 359.8 134.384 L 359.8 134.384 L 359.8 137.36 L 359.8 137.36 Q 358.792 136.88 357.592 136.88 L 357.592 136.88 L 357.592 136.88 Q 355.528 136.88 353.752 138.032 L 353.752 138.032 L 353.752 138.032 Q 351.976 139.184 350.896 141.368 L 350.896 141.368 L 350.896 141.368 Q 349.816 143.552 349.816 146.528 L 349.816 146.528 L 349.816 157.28 L 346.552 157.28 L 346.552 134.816 L 349.816 134.816 L 349.816 139.328 L 349.816 139.328 Q 351.112 136.832 353.104 135.44 L 353.104 135.44 L 353.104 135.44 Q 355.096 134.048 357.592 134.048 L 357.592 134.048 Z  M 380.344 157.28 L 376.696 157.28 L 368.824 145.712 L 366.088 148.352 L 366.088 157.28 L 362.824 157.28 L 362.824 122.432 L 366.088 122.432 L 366.088 144.224 L 375.928 134.816 L 380.152 134.816 L 371.08 143.552 L 380.344 157.28 Z  M 393.448 134.048 L 393.448 134.048 Q 396.472 134.048 398.92 135.536 L 398.92 135.536 L 398.92 135.536 Q 401.368 137.024 402.76 139.592 L 402.76 139.592 L 402.76 139.592 Q 404.152 142.16 404.152 145.328 L 404.152 145.328 L 404.152 145.328 Q 404.152 146.24 404.104 146.72 L 404.104 146.72 L 385.624 146.72 L 385.624 146.72 Q 385.816 150.176 387.88 152.624 L 387.88 152.624 L 387.88 152.624 Q 389.944 155.072 393.496 155.072 L 393.496 155.072 L 393.496 155.072 Q 396.376 155.072 398.272 153.992 L 398.272 153.992 L 398.272 153.992 Q 400.168 152.912 401.32 150.992 L 401.32 150.992 L 403.912 152.72 L 403.912 152.72 Q 402.328 155.216 399.736 156.632 L 399.736 156.632 L 399.736 156.632 Q 397.144 158.048 393.592 158.048 L 393.592 158.048 L 393.592 158.048 Q 390.328 158.048 387.784 156.512 L 387.784 156.512 L 387.784 156.512 Q 385.24 154.976 383.8 152.24 L 383.8 152.24 L 383.8 152.24 Q 382.36 149.504 382.36 146.048 L 382.36 146.048 L 382.36 146.048 Q 382.36 142.592 383.776 139.856 L 383.776 139.856 L 383.776 139.856 Q 385.192 137.12 387.712 135.584 L 387.712 135.584 L 387.712 135.584 Q 390.232 134.048 393.448 134.048 L 393.448 134.048 Z  M 385.816 144.032 L 400.888 144.032 L 400.888 144.032 Q 400.408 140.528 398.536 138.776 L 398.536 138.776 L 398.536 138.776 Q 396.664 137.024 393.448 137.024 L 393.448 137.024 L 393.448 137.024 Q 390.328 137.024 388.336 139.016 L 388.336 139.016 L 388.336 139.016 Q 386.344 141.008 385.816 144.032 L 385.816 144.032 Z  M 413.416 157.28 L 410.152 157.28 L 410.152 137.792 L 406.312 137.792 L 406.312 134.816 L 410.152 134.816 L 410.152 127.376 L 413.416 127.376 L 413.416 134.816 L 418.6 134.816 L 418.6 137.792 L 413.416 137.792 L 413.416 157.28 Z  M 427.192 157.28 L 423.928 157.28 L 423.928 134.816 L 427.192 134.816 L 427.192 157.28 Z  M 425.56 130.448 L 425.56 130.448 Q 424.456 130.448 423.712 129.68 L 423.712 129.68 L 423.712 129.68 Q 422.968 128.912 422.968 127.808 L 422.968 127.808 L 422.968 127.808 Q 422.968 126.752 423.712 126.008 L 423.712 126.008 L 423.712 126.008 Q 424.456 125.264 425.56 125.264 L 425.56 125.264 L 425.56 125.264 Q 426.616 125.264 427.384 126.008 L 427.384 126.008 L 427.384 126.008 Q 428.152 126.752 428.152 127.856 L 428.152 127.856 L 428.152 127.856 Q 428.152 128.912 427.384 129.68 L 427.384 129.68 L 427.384 129.68 Q 426.616 130.448 425.56 130.448 L 425.56 130.448 Z  M 445.72 134.048 L 445.72 134.048 Q 448.072 134.048 450.064 135.008 L 450.064 135.008 L 450.064 135.008 Q 452.056 135.968 453.232 137.84 L 453.232 137.84 L 453.232 137.84 Q 454.408 139.712 454.408 142.256 L 454.408 142.256 L 454.408 157.28 L 451.144 157.28 L 451.144 143.696 L 451.144 143.696 Q 451.144 137.024 445.192 137.024 L 445.192 137.024 L 445.192 137.024 Q 441.736 137.024 440.008 139.472 L 440.008 139.472 L 440.008 139.472 Q 438.28 141.92 438.28 146.048 L 438.28 146.048 L 438.28 157.28 L 435.016 157.28 L 435.016 134.816 L 438.28 134.816 L 438.28 138.56 L 438.28 138.56 Q 439.432 136.4 441.328 135.224 L 441.328 135.224 L 441.328 135.224 Q 443.224 134.048 445.72 134.048 L 445.72 134.048 Z  M 478.408 134.816 L 481.672 134.816 L 481.672 156.416 L 481.672 156.416 Q 481.672 159.44 480.424 161.816 L 480.424 161.816 L 480.424 161.816 Q 479.176 164.192 476.92 165.536 L 476.92 165.536 L 476.92 165.536 Q 474.664 166.88 471.784 166.88 L 471.784 166.88 L 462.472 166.88 L 462.472 163.904 L 471.784 163.904 L 471.784 163.904 Q 474.712 163.904 476.56 161.792 L 476.56 161.792 L 476.56 161.792 Q 478.408 159.68 478.408 156.416 L 478.408 156.416 L 478.408 153.968 L 478.408 153.968 Q 477.016 155.888 475 156.968 L 475 156.968 L 475 156.968 Q 472.984 158.048 470.584 158.048 L 470.584 158.048 L 470.584 158.048 Q 467.368 158.048 464.824 156.512 L 464.824 156.512 L 464.824 156.512 Q 462.28 154.976 460.84 152.24 L 460.84 152.24 L 460.84 152.24 Q 459.4 149.504 459.4 146 L 459.4 146 L 459.4 146 Q 459.4 142.544 460.816 139.832 L 460.816 139.832 L 460.816 139.832 Q 462.232 137.12 464.752 135.584 L 464.752 135.584 L 464.752 135.584 Q 467.272 134.048 470.488 134.048 L 470.488 134.048 L 470.488 134.048 Q 472.936 134.048 474.976 135.128 L 474.976 135.128 L 474.976 135.128 Q 477.016 136.208 478.408 138.176 L 478.408 138.176 L 478.408 134.816 Z  M 470.488 155.072 L 470.488 155.072 Q 472.792 155.072 474.592 153.92 L 474.592 153.92 L 474.592 153.92 Q 476.392 152.768 477.4 150.704 L 477.4 150.704 L 477.4 150.704 Q 478.408 148.64 478.408 146.048 L 478.408 146.048 L 478.408 146.048 Q 478.408 143.456 477.4 141.392 L 477.4 141.392 L 477.4 141.392 Q 476.392 139.328 474.592 138.176 L 474.592 138.176 L 474.592 138.176 Q 472.792 137.024 470.488 137.024 L 470.488 137.024 L 470.488 137.024 Q 468.232 137.024 466.456 138.176 L 466.456 138.176 L 466.456 138.176 Q 464.68 139.328 463.672 141.368 L 463.672 141.368 L 463.672 141.368 Q 462.664 143.408 462.664 146 L 462.664 146 L 462.664 146 Q 462.664 148.64 463.672 150.704 L 463.672 150.704 L 463.672 150.704 Q 464.68 152.768 466.456 153.92 L 466.456 153.92 L 466.456 153.92 Q 468.232 155.072 470.488 155.072 L 470.488 155.072 Z  M 192.328 124.592 L 192.328 124.592 Q 190.648 124.592 189.568 125.744 L 189.568 125.744 L 189.568 125.744 Q 188.488 126.896 188.488 128.72 L 188.488 128.72 L 188.488 134.816 L 193.672 134.816 L 193.672 137.792 L 188.488 137.792 L 188.488 157.28 L 185.224 157.28 L 185.224 137.792 L 182.344 137.792 L 182.344 134.816 L 185.224 134.816 L 185.224 128.72 L 185.224 128.72 Q 185.224 125.6 187.216 123.608 L 187.216 123.608 L 187.216 123.608 Q 189.208 121.616 192.328 121.616 L 192.328 121.616 L 193.672 121.616 L 193.672 124.592 L 192.328 124.592 Z  M 202.264 157.28 L 199 157.28 L 199 134.816 L 202.264 134.816 L 202.264 157.28 Z  M 200.632 130.448 L 200.632 130.448 Q 199.528 130.448 198.784 129.68 L 198.784 129.68 L 198.784 129.68 Q 198.04 128.912 198.04 127.808 L 198.04 127.808 L 198.04 127.808 Q 198.04 126.752 198.784 126.008 L 198.784 126.008 L 198.784 126.008 Q 199.528 125.264 200.632 125.264 L 200.632 125.264 L 200.632 125.264 Q 201.688 125.264 202.456 126.008 L 202.456 126.008 L 202.456 126.008 Q 203.224 126.752 203.224 127.856 L 203.224 127.856 L 203.224 127.856 Q 203.224 128.912 202.456 129.68 L 202.456 129.68 L 202.456 129.68 Q 201.688 130.448 200.632 130.448 L 200.632 130.448 Z  M 219.784 134.048 L 219.784 134.048 Q 222.808 134.048 225.256 135.536 L 225.256 135.536 L 225.256 135.536 Q 227.704 137.024 229.096 139.592 L 229.096 139.592 L 229.096 139.592 Q 230.488 142.16 230.488 145.328 L 230.488 145.328 L 230.488 145.328 Q 230.488 146.24 230.44 146.72 L 230.44 146.72 L 211.96 146.72 L 211.96 146.72 Q 212.152 150.176 214.216 152.624 L 214.216 152.624 L 214.216 152.624 Q 216.28 155.072 219.832 155.072 L 219.832 155.072 L 219.832 155.072 Q 222.712 155.072 224.608 153.992 L 224.608 153.992 L 224.608 153.992 Q 226.504 152.912 227.656 150.992 L 227.656 150.992 L 230.248 152.72 L 230.248 152.72 Q 228.664 155.216 226.072 156.632 L 226.072 156.632 L 226.072 156.632 Q 223.48 158.048 219.928 158.048 L 219.928 158.048 L 219.928 158.048 Q 216.664 158.048 214.12 156.512 L 214.12 156.512 L 214.12 156.512 Q 211.576 154.976 210.136 152.24 L 210.136 152.24 L 210.136 152.24 Q 208.696 149.504 208.696 146.048 L 208.696 146.048 L 208.696 146.048 Q 208.696 142.592 210.112 139.856 L 210.112 139.856 L 210.112 139.856 Q 211.528 137.12 214.048 135.584 L 214.048 135.584 L 214.048 135.584 Q 216.568 134.048 219.784 134.048 L 219.784 134.048 Z  M 212.152 144.032 L 227.224 144.032 L 227.224 144.032 Q 226.744 140.528 224.872 138.776 L 224.872 138.776 L 224.872 138.776 Q 223 137.024 219.784 137.024 L 219.784 137.024 L 219.784 137.024 Q 216.664 137.024 214.672 139.016 L 214.672 139.016 L 214.672 139.016 Q 212.68 141.008 212.152 144.032 L 212.152 144.032 Z  M 238.792 157.28 L 235.528 157.28 L 235.528 122.432 L 238.792 122.432 L 238.792 157.28 Z  M 262.648 122.432 L 265.912 122.432 L 265.912 157.28 L 262.648 157.28 L 262.648 153.968 L 262.648 153.968 Q 261.256 155.888 259.24 156.968 L 259.24 156.968 L 259.24 156.968 Q 257.224 158.048 254.824 158.048 L 254.824 158.048 L 254.824 158.048 Q 251.608 158.048 249.064 156.512 L 249.064 156.512 L 249.064 156.512 Q 246.52 154.976 245.08 152.24 L 245.08 152.24 L 245.08 152.24 Q 243.64 149.504 243.64 146 L 243.64 146 L 243.64 146 Q 243.64 142.544 245.056 139.832 L 245.056 139.832 L 245.056 139.832 Q 246.472 137.12 248.992 135.584 L 248.992 135.584 L 248.992 135.584 Q 251.512 134.048 254.728 134.048 L 254.728 134.048 L 254.728 134.048 Q 257.176 134.048 259.216 135.128 L 259.216 135.128 L 259.216 135.128 Q 261.256 136.208 262.648 138.176 L 262.648 138.176 L 262.648 122.432 Z  M 254.728 155.072 L 254.728 155.072 Q 257.032 155.072 258.832 153.92 L 258.832 153.92 L 258.832 153.92 Q 260.632 152.768 261.64 150.704 L 261.64 150.704 L 261.64 150.704 Q 262.648 148.64 262.648 146.048 L 262.648 146.048 L 262.648 146.048 Q 262.648 143.456 261.64 141.392 L 261.64 141.392 L 261.64 141.392 Q 260.632 139.328 258.832 138.176 L 258.832 138.176 L 258.832 138.176 Q 257.032 137.024 254.728 137.024 L 254.728 137.024 L 254.728 137.024 Q 252.472 137.024 250.696 138.176 L 250.696 138.176 L 250.696 138.176 Q 248.92 139.328 247.912 141.368 L 247.912 141.368 L 247.912 141.368 Q 246.904 143.408 246.904 146 L 246.904 146 L 246.904 146 Q 246.904 148.64 247.912 150.704 L 247.912 150.704 L 247.912 150.704 Q 248.92 152.768 250.696 153.92 L 250.696 153.92 L 250.696 153.92 Q 252.472 155.072 254.728 155.072 L 254.728 155.072 Z " fill-rule="evenodd" fill="rgb(255,255,255)"/></g></svg>